<?xml version="1.0" encoding="utf-8"?>
<!-- Generator: Adobe Illustrator 18.0.0, SVG Export Plug-In . SVG Version: 6.00 Build 0)  -->
<!DOCTYPE svg PUBLIC "-//W3C//DTD SVG 1.1//EN" "http://www.w3.org/Graphics/SVG/1.1/DTD/svg11.dtd">
<svg version="1.1" id="Layer_1" xmlns="http://www.w3.org/2000/svg" xmlns:xlink="http://www.w3.org/1999/xlink" x="0px" y="0px"
	 viewBox="0 0 274 274.3" enable-background="new 0 0 274 274.3" xml:space="preserve">
<g id="XMLID_28_">
	<path id="XMLID_25_" fill="#00913A" d="M156.5,65.1c0.8,0.4,1.3,0.9,1.4,1.1c0,0-0.3,0.1-0.7,0.2C157,65.8,156.8,65.4,156.5,65.1z"
		/>
	<path id="XMLID_24_" fill="#00913A" d="M155.5,63.8c-0.3-0.3-0.6-0.6-0.9-0.8c1.9,0.3,4.1,1.5,5.3,2.3c-0.2,0.1-0.4,0.2-0.7,0.3
		C158.5,65,157.2,64.3,155.5,63.8z"/>
	<g id="XMLID_29_">
		<path id="XMLID_71_" fill="#BBD8E0" d="M146.5,116.2l0.9,0.6c0.2,0.2,0.5,0.4,0.7,0.5l0.6,0.6c1.2,1.1,2.3,2.4,3.4,3.8l0.4,0.6
			c0.2,0.3,0.5,0.7,0.7,1l0.3,0.4c0.4,0.6,0.8,1.2,1.2,1.8l0.4,0.6c0.7,1,1.3,2,2,3l0.4,0.7c0.1,0.2,0.3,0.4,0.4,0.6l0.5,0.7
			c0.1,0.2,0.2,0.3,0.3,0.5l0.6,0.8c8.3,2.3,21.2,3.1,24.9-4.1c2.2-4.4,0.8-9.3-2.9-12.6c13.7-11.8,22.5-24.8,27.2-33.5
			c10.2-18.7,13.5-40,13.9-57.8c0.1-5,0-17-1.2-22.5c-0.4,0.6-3.2,12-6.7,19.6c-7,15.1-19.8,30.1-31.5,46c-2.4,3.2-4.7,6.5-7,9.8
			c2.1-20.2-0.8-41.7-5.9-57.6c-2-6.4-5.3-14-6.9-16.4c-0.1,0.9-1.1,8.9-2.4,13.9c-1.5,6.2-5.3,17.9-7.2,26.6l0.7,0.4
			c0.8,0.5,1.6,1.1,2.3,1.9c3.1-0.8,8.2,5,7.6,10.7c1.7,1.2,0.5,6.3-3.1,8.8c4.3,3.4,4.3,5.7,3.3,6c1.4,2.5,1.7,4.8,0.4,5.8
			c0.6,2,0.9,4,0.7,5.6c-0.3-2-0.7-3.8-1.2-5.4c-0.5,0.1-1-0.1-1.5-0.6c0.7,2.4,1,4.7,0.8,6c-0.4-2.5-1-4.9-1.7-7
			c-0.4-0.5-1.5-2.3-2.7-4.1c1,3.1,1.4,6.4,1.2,9.2c-0.1,4.4-2.3,9.9-5.4,13.4c-0.3,8.2-4.7,11.3-6.6,11.7l-0.7,0.1c0,0.7,0,1.3,0,2
			C146,109.8,145.6,113,146.5,116.2z M160.9,65.9c-0.2,0.1-0.4,0.2-0.7,0.3c1.7,1.4,3.2,3.1,4.2,4.7C165,70.8,164.6,68.8,160.9,65.9
			z M163.4,70.5c-1-1.4-2.3-2.8-3.9-4c-0.1,0-0.2,0.1-0.3,0.1C160.8,68.1,162.4,69.8,163.4,70.5z M164,71.5
			c-0.6-0.2-1.3-0.8-2.1-1.5c1.1,1.7,2.3,4.1,3.1,6.7C165.8,75.6,165.3,73.6,164,71.5z M158,67.7c2.1,0.9,3.8,4.8,4.7,7.8
			c0.7,1,1.3,1.6,1.8,1.5c-1.5-4.6-3.6-7.5-5.3-9.7c-0.2-0.2-0.4-0.4-0.6-0.5c-0.1,0-0.6,0.1-1.1,0.1
			C157.8,67.2,157.9,67.5,158,67.7z M161.4,73.4c-0.7-1.6-1.6-3.8-2.9-4.7c0.2,0.4,0.3,0.8,0.5,1.2C159.9,71,160.9,72.6,161.4,73.4z
			"/>
		<path id="XMLID_67_" fill="#00913A" d="M160.2,66.3c1.7,1.4,3.2,3.1,4.2,4.7c0.6-0.2,0.2-2.2-3.6-5.1c0,0-0.6-0.4-0.9-0.6
			c-1.2-0.8-3.4-2-5.3-2.3l-0.9-0.7c2.5,0.1,5,1.4,6.8,2.7c0,0,0.4,0.3,0.9,0.6c4.3,3.4,4.3,5.7,3.3,6c1.4,2.5,1.7,4.8,0.4,5.8
			c0.6,2,0.9,4,0.7,5.6c-0.3-2-0.7-3.8-1.2-5.4c-0.5,0.1-1-0.1-1.5-0.6c0.7,2.4,1,4.7,0.8,6c-0.4-2.5-1-4.9-1.7-7
			c-0.4-0.5-1.5-2.3-2.7-4.1c0,0-0.4-1.3-0.7-2c1,1.1,1.9,2.7,2.4,3.5c-0.7-1.6-1.6-3.7-2.9-4.7c0,0-0.2-0.5-0.4-0.9
			c2.1,0.9,3.8,4.8,4.7,7.8c0.7,1,1.3,1.6,1.8,1.5c-1.5-4.6-3.6-7.5-5.3-9.7c-0.2-0.2-0.4-0.4-0.5-0.5l-0.7-0.7
			c-0.2-0.2-0.6-0.7-1.4-1.1c0,0-0.6-0.8-1-1.3c1.7,0.5,2.9,1.3,3.8,1.9C159.3,65.6,159.7,65.9,160.2,66.3z M159.3,66.6
			c1.6,1.5,3.1,3.2,4.1,3.9c-1-1.4-2.3-2.8-3.9-4c0,0-0.5-0.4-0.9-0.6c-0.3-0.2-0.6-0.4-0.9-0.6c0.2,0.2,0.5,0.4,0.7,0.6
			C158.5,65.9,158.8,66.2,159.3,66.6z M164,71.5c-0.6-0.2-1.3-0.8-2.1-1.5c1.1,1.7,2.3,4.1,3.1,6.7C165.8,75.6,165.3,73.6,164,71.5z
			"/>
		<g id="XMLID_31_">
			<g>
				<path fill="#25809B" d="M199.2,159c8.9-2.5,7-12.1,8.2-15.7c-0.2,0.2-0.4,0.4-0.6,0.5c0,0,0,0,0,0c-0.2,0.2-0.4,0.3-0.6,0.5
					c0,0-0.1,0.1-0.1,0.1c0,0-0.1,0.1-0.1,0.1c-0.1,0-0.1,0.1-0.2,0.1c0,0-0.1,0-0.1,0.1c-0.1,0-0.2,0.1-0.2,0.1c0,0,0,0-0.1,0
					c-0.1,0.1-0.2,0.1-0.3,0.2c0,0-0.1,0-0.1,0c-0.1,0-0.2,0.1-0.2,0.1c0,0-0.1,0-0.1,0.1c-0.1,0-0.1,0.1-0.2,0.1c0,0-0.1,0-0.1,0.1
					c-0.1,0-0.1,0.1-0.2,0.1c-0.1,0-0.1,0-0.1,0.1c-0.1,0-0.2,0.1-0.2,0.1c0,0-0.1,0-0.1,0c-0.1,0-0.2,0.1-0.3,0.1c0,0-0.1,0-0.1,0
					c-0.1,0-0.3,0.1-0.4,0.1c0,0-0.1,0-0.1,0c-0.1,0-0.2,0-0.3,0.1c-0.1,0-0.1,0-0.2,0c-0.1,0-0.2,0-0.3,0c-0.1,0-0.1,0-0.2,0
					c-0.1,0-0.2,0-0.3,0c-0.1,0-0.1,0-0.2,0c-0.1,0-0.2,0-0.3,0c-0.1,0-0.1,0-0.2,0h-0.5c-0.2,0-0.3,0-0.5,0c0,0-0.1,0-0.1,0
					c-0.1,0-0.3,0-0.4,0c-0.1,0-0.1,0-0.2,0c-0.1,0-0.2,0-0.3,0c-0.1,0-0.1,0-0.2,0c-0.1,0-0.2,0-0.3-0.1c-0.1,0-0.1,0-0.2,0
					c-0.1,0-0.2-0.1-0.3-0.1c-0.1,0-0.1,0-0.2,0c-0.1,0-0.3-0.1-0.4-0.1c-0.1,0-0.1,0-0.2,0c-0.2-0.1-0.4-0.1-0.6-0.2c0,0,0,0,0,0
					c-0.2-0.1-0.4-0.1-0.5-0.2c-0.1,0-0.1,0-0.2-0.1c-0.1-0.1-0.3-0.1-0.4-0.2c-0.1,0-0.1-0.1-0.2-0.1c-0.1-0.1-0.3-0.1-0.4-0.2
					c-0.1,0-0.2-0.1-0.2-0.1c-0.1-0.1-0.3-0.1-0.4-0.2c-0.1,0-0.2-0.1-0.2-0.1c-0.1-0.1-0.3-0.2-0.4-0.2c-0.1,0-0.1-0.1-0.2-0.1
					c-0.2-0.1-0.4-0.2-0.7-0.4c-1.8-2.2-4.7-4.6-7.8-5.7c-10.2-3.7-16.6,1.4-21.6-2c-0.2-0.1-0.3-0.2-0.4-0.3c0,0-0.1-0.1-0.1-0.1
					c-0.1-0.1-0.2-0.2-0.3-0.3c-0.1-0.1-0.2-0.1-0.2-0.2c-0.1-0.1-0.1-0.1-0.2-0.2c-0.1-0.1-0.1-0.1-0.2-0.2c-0.7-0.7-1.3-1.4-2-2.3
					l-0.6-0.8c-0.1-0.2-0.2-0.3-0.3-0.5l-0.5-0.7c-0.1-0.2-0.3-0.4-0.4-0.6l-0.4-0.7c-0.7-1-1.3-2-2-3l-0.4-0.6
					c-0.4-0.6-0.8-1.2-1.2-1.8l-0.3-0.4c-0.3-0.4-0.5-0.7-0.7-1l-0.4-0.6c-1.1-1.4-2.2-2.7-3.4-3.8l-0.6-0.6
					c-0.2-0.2-0.4-0.4-0.7-0.5l-0.9-0.6c-1-0.7-2.4-1.3-3.9-1.7c-0.9-1.5-0.1-3.7,0.4-4.7c1.5-1.3,2.7-2.6,3.7-3.8
					c0.5,0.2,0.9,0.3,1.3,0.3l0.7-0.1c1.9-0.3,6.4-3.5,6.6-11.7c3.1-3.5,5.3-9,5.4-13.4c0.2-2.8-0.3-6.2-1.2-9.2
					c1.2,1.8,2.3,3.6,2.7,4.1c0.7,2.1,1.3,4.5,1.7,7c0.2-1.3-0.1-3.6-0.8-6c0.5,0.5,1,0.7,1.5,0.6c0.5,1.6,0.9,3.3,1.2,5.4
					c0.2-1.7-0.1-3.6-0.7-5.6c1.3-1,1-3.3-0.4-5.8c0.9-0.3,1-2.6-3.3-6c3.6-2.5,4.8-7.7,3-8.8c0.6-5.8-4.5-11.6-7.6-10.8
					c-0.7-0.7-1.5-1.4-2.3-1.9l-0.7-0.4c-1.8-0.9-3.6-1.2-4.7-0.5c-2.5-0.8-5.6-0.5-6.3,0.4c0.4,0,1,0.1,1.6,0.2
					c-3.7,0.7-5.5,2.8-5.8,5.1c-0.8,1.2-1.2,2.8-0.3,4.2c-0.4,2.6,0.6,5.8,2.8,7.2c-3.3,1.4-7.4,3.6-11.6,4.3
					c-2.3-0.8-4.3-1.9-5.5-3.3c-0.1,0.7-0.2,1.7,0,2.4c-3.8-1.6-9.5-1.8-12.4,0.6c1.8,0,4.9,0.9,6.7,1.9c-4.7-1-10.2,0.6-12.2,2.8
					c1.1-0.1,3.4,0.3,5.6,0.9c-10.2,3.4-9,16.8-4,21c0.1-0.4,0.2-0.9,0.2-1.5c1.3,5.6,5.5,8.3,7.5,8.5c-1.5-2.8-0.9-6.6-0.5-8.4
					c0.2,0.5,0.5,0.9,0.9,1.1c0.3-1.6,0.9-3,1.5-4.3c0.4,3.1,2,7.7,1.9,9.4c-0.1,2.3-2.4,4.5-2.4,7.2c-0.1,4.8,6,12.2,12,12.4
					c1.2,0,2.8-0.2,4.4-0.7c0,0.2-0.1,0.3-0.1,0.4c-5.9,1.9-12.3,5.8-19.4,7.6c-4,1-7,0-11.7,1c-5,1-9.5,3-15.4,4.4
					c-4.6,1.1-10.2,1.7-12,2.4c-2.3,0.8-5.4,3-7.6,4c-1.4,0.6-3.3,0.6-4.1,0.9c-1.3,0.4-2.5,1.6-4.5,2.4c0,1,1.4,1.3,2.6,1
					c-1.1,1.3-2.8,2.7-4.1,3.8c0.9,0.7,2,0.5,3.2,0.1c2.4,0.1,3.7-1,4.4-1.5c0.4,1.2,0.8,2.5,0.9,4.2c0.1,0,0.2,0,0.4,0
					c-3.1,6.5-6.9,15.1-8.9,19.6c-0.1,0.1-0.1,0.1-0.2,0.2c0,0,0,0,0,0c0,0.1,0,0.2-0.1,0.2c-0.1,0.5-0.3,1-0.6,1.4
					c-1.3,2.6-3.4,5-3,8.2c3.7-0.3,3.6-5,5.1-8.8c0.2-0.4,0.3-0.8,0.5-1.2c0-0.1,0.3-0.3,0.3-0.4c0,0,0-0.1,0.1-0.1l0.1-0.2
					c0,0,0,0,0,0c3.6-7.2,8.2-16.6,9.8-19.9c0.2,0.3,0.5,0.6,0.7,0.8c0.7-1.2,1.2-2.5,2.1-3.3c1.4-1.3,3.9-1.7,5.5-3.1
					c0.8-0.7,1.1-2.1,1.4-3.3c9.2-2.6,21,0.7,33.1-1.5c7.6-1.4,13.2-3.5,18.3-5.1c-0.6,1.5-1.6,2.9-1.6,4.4c0.1,3.7,5.6,6.5,9.2,6.3
					c1.4,1.1,3.5,1.9,5.9,2.7c-3.1,2.1-7.2,3.2-10.1,3.4c-0.6-1.9-2.8-3.1-3.2-3.7c-0.3-0.4-0.7-2.2-1-2.7c-0.2-0.3-1.2-1.1-1.8-1.8
					c-0.7,0.4-0.8,1.3,0.2,2.5c0,0.2-0.1,0.6,0,0.9c-0.7-0.6-1.4-1.1-1.5-1.1c-0.2-0.1-1.5-0.2-2.3-0.3c-1.2-0.3-3.8-0.7-4.9-0.8
					c-0.2-0.1-0.3-0.1-0.4-0.2c-0.2,0.7-0.2,1.4,0.5,1.9c0.7,0.5,1.9,0.9,2.5,1.5c0.5,0.5,1.9,3,2.9,4.4c-1.8-0.3-3.5,0.6-2.9,1.7
					c0.2,0.4,0.9,0.3,2.3,0.7c1.3,0.4,3.4,1.8,4.9,2.1c1.5,0.3,2.4,0,3.8,0.1c2,0.1,8.6,1.8,22.9-4.8c0.8,0.4,1.5,0.8,2.1,1.3
					c-0.8,3.1-12.9,3.4-13.4,7.7c-7.9,4.6-16,12.3-16.9,15.2c-0.8,2.6-0.7,8.8,1.9,11.1c2.1,1.8,13.5,2.7,26,8.5
					c-1,3.2-1.7,6.2-2,8.6c-0.3,2.1-0.4,4.8-0.3,7.4l0-0.1c-5.3,18.9-18.1,33.9-23.7,52.2c-2.6-1.8-6.2-1.6-8.6,0.9
					c-4,4.1-1.4,11.1,4.6,11.4c-0.4,0.7-0.3,1.6,0.4,2c1.6,0.8,6.1,0.1,8.8-2.6c2.5-2.4,2.5-5,4.1-8c1.4-2.7,4.5-5.6,4.6-8.5
					c0-1.6-1.6-3-2.8-3.5c0.1-0.8,0.4-1.7,0.9-2.7c3.1-5.5,10.5-10.1,16.1-15.9c4.2-4.3,7.9-9.7,9.1-15c1.3-5.9-0.2-10.5,2.5-15.6
					c0.6-1.1,1.4-2.3,2.4-3.6c6.3,2.7,14,6.8,18.1,8.1c-3,3-1.8,8.5,2.8,9.7c4.8,1.3,8.6-3,7.5-7.1c0.7,0.3,1.6,0.5,2.1-0.1
					c0.8-1.1-0.6-4.5-2.7-6.5c-1.6-1.5-4.6-2.4-6.9-4.1c-2.3-1.7-3.1-4.9-7-6.1c-1.7-0.5-3.1,1.3-3.4,3.1c-1.2-0.4-2.9-1.1-5.3-2.9
					c5.8-6.4,13-14.2,16.5-22.9c5,1.4,10.4,1.1,12.4-1.8C202.1,165.6,200.6,162.3,199.2,159z M158.9,69.9c-0.2-0.4-0.3-0.8-0.5-1.2
					c1.3,1,2.3,3.1,2.9,4.7C160.9,72.6,159.9,71,158.9,69.9z M165,76.6c-0.8-2.5-2-5-3.1-6.7c0.8,0.7,1.5,1.3,2.1,1.5
					C165.3,73.6,165.8,75.6,165,76.6z M160.9,65.9c3.8,2.9,4.2,4.9,3.6,5.1c-1-1.7-2.5-3.4-4.2-4.7C160.4,66.1,160.7,66,160.9,65.9z
					 M159.6,66.5c1.5,1.2,2.9,2.6,3.9,4c-1-0.8-2.6-2.4-4.1-3.9C159.4,66.6,159.5,66.6,159.6,66.5z M158.7,66.8
					c0.2,0.2,0.4,0.4,0.5,0.5c1.7,2.2,3.8,5.1,5.3,9.7c-0.5,0.1-1.1-0.5-1.8-1.5c-0.9-3-2.6-6.8-4.7-7.8c-0.1-0.3-0.3-0.6-0.4-0.8
					C158.1,66.9,158.6,66.8,158.7,66.8z M160.2,176.8c-1.7-1.3-4.2-2.9-5.9-3.6c2.5-0.3,5-0.5,7.1-1c0.1,0.3,0.2,0.5,0.3,0.8
					C161.2,174.2,160.7,175.5,160.2,176.8z"/>
			</g>
		</g>
		<path id="XMLID_1_" fill="#25809B" d="M49.4,172.2c-4-1.1-7.6-2.1-8.7-2.8c2.2-0.3,8.6-0.5,10.5-0.5c-1.4-4.9-2.5-8-2.8-9.8
			c1.1,0.8,5.6,6.3,6.9,8.1c0.5-0.7,1.2-1.5,1.7-2.2c0,0,0,0,0,0c0,0.1,0,0.2-0.1,0.2c-0.1,0.5-0.3,1-0.6,1.4c0,0,0,0,0,0
			c-0.8,1.9-1.5,3.5-1.9,4.7c-1.1,2.9-0.6,3.5,1.1,0.4c0.8-1.5,1.8-3.4,2.8-5.6l0,0c0.2-0.4,0.3-0.8,0.5-1.2c0-0.1,0.3-0.3,0.3-0.4
			c0,1.5-0.2,3.5-0.3,4.1c2.3-1.1,5.5-2.5,6.9-2.6c-0.9,1.2-3.9,3.6-5.2,4.3c3.5,1.5,10.1,4.5,11.4,5.7c-1.5,0.1-8.4-1.2-10.8-1.8
			c1.8,3.1,5,8.8,5.4,10.4c-1.7-0.9-5.9-4.3-8.2-6.4c-0.1,0.4-0.2,0.8-0.3,1c-0.9-0.5-2.1-1.2-2.3-1.4c-0.3,2.4-0.7,6.5-1.3,8.8
			c-0.8-2.5-1.4-5.7-1.6-8.1c-1.4,1.3-4.2,3.9-6.5,5.7c0.7-2.9,2.1-7.5,2.7-9c-2.1,0.7-3.6,1.1-5,1.1
			C46.3,174.5,48.5,172.7,49.4,172.2z"/>
	</g>
</g>
</svg>
