<?xml version="1.0" encoding="utf-8"?>
<!-- Generator: Adobe Illustrator 19.1.0, SVG Export Plug-In . SVG Version: 6.00 Build 0)  -->
<svg version="1.1" id="Layer_1" xmlns="http://www.w3.org/2000/svg" xmlns:xlink="http://www.w3.org/1999/xlink" x="0px" y="0px"
	 viewBox="-452.6 253.4 55 55" style="enable-background:new -452.6 253.4 55 55;" xml:space="preserve">
<style type="text/css">
	.st0{fill:#3C93AC;}
</style>
<g>
	<path class="st0" d="M-399.6,274.8c-0.2-0.3-0.7-0.3-0.9-0.2c0.1-0.8,0-1.7-0.5-2.1c0.1-0.4,0-0.9-0.5-1.1c-0.6-0.3-1,0.1-1.3,0.8
		c0,0,0,0.1-0.1,0.2c-0.7,0.2-1.3,0.7-1.7,1.4c-0.5,0.1-1,0.6-1.3,1.2c-0.4,0-0.7,0.2-1,0.5c-0.1,0-0.2,0-0.3,0
		c-0.3-1.4-1.2-2.6-2-3.1c-0.5-1.4-1.9-1.5-2.1-0.6c-0.4-0.3-1.1-0.5-1.7-0.1c-0.3,0.2-0.5,0.6-0.6,1.1c-0.3,0.1-0.7,0.3-0.9,0.7
		c-1.1,0.3-2,1.2-2,2.5c0,1.2,0.8,2,1.8,2.1c0.2,0.5,0.6,0.9,1,1.2c0,0.3,0,0.6,0,0.9c-0.3,0.1-0.7,0.3-1,0.5
		c-0.8-1-1.8-0.4-2.5-0.3c-0.5-0.3-1.1-0.4-1.5-0.4c-0.9,0.1-2.4,0.9-3.6,1.7c-0.4-0.2-0.9-0.1-1.3,0.2c-4.6-1.1-5.9-4.4-8.8-4.4
		c-0.2,0-0.4,0-0.6,0.1c-6.2-5.3-4.2-20.8-12.6-20.9c8.2,1.1,5.9,15.1,11.7,21.2c-2.3,1.5-6,6.3-9.2,11.2c-3.4,5.3-5.8,8.2-7.1,10.9
		c-0.3,1-0.4,1.6-0.4,2c0.2,1.7,4.5,2.5,5.8,2.2c0.5,0.8,1.9,1.1,2.8,0.5c0.2,0.1,0.3,0.2,0.4,0.3c0.1-0.1,0.2-0.3,0.2-0.5
		c0.6,0.1,1.2,0,1.6-0.4c0.2,0,0.3,0.1,0.4,0.2c0.1-0.2,0.1-0.4,0-0.6c0.4,0,0.9-0.1,1.2-0.5c0.2,0,0.4,0,0.5,0.1
		c0.1-0.2,0-0.6-0.2-0.7c0.3-1.1-0.8-1.9-1.7-1.9c-0.4-0.5-1.3-1-2.2-1.2c-0.1-0.2-0.2-0.4-0.5-0.5c1.1-3.9,5.1-9.1,8.1-13.6
		c0.2,0,0.6-0.2,0.9-0.3c0.7,1,1.6,1.9,2.5,2.7c0,0,0,0,0,0.1c-1.4,1.1-4.3,2.6-5.3,3.3c-1.6,1-2.9,2.9-1.1,4.1
		c1.6,1.1,6.5,0.9,7.1,1c0.6,0.4,1.3,0.3,1.8,0.2c-1.6,3.2-2.3,5.9-2.1,6.4c1,1.8,5.6,1.8,7.9,1.2c1.2,0.2,3.2-0.4,3.4-1.2
		c0.3,0,0.7-0.1,0.8-0.2c0.1-0.1-0.5-0.5-1-0.6c-0.1-0.2-0.2-0.3-0.4-0.5c0-0.1,0.1-0.2,0.1-0.3c0.3,0,0.8-0.1,0.8-0.2
		c0-0.1-0.5-0.6-1.2-0.6c-0.4-0.3-1-0.5-1.5-0.5l0,0c-0.3-0.6-1.7-0.5-2.1-0.3c-0.2,0-0.5,0-0.6,0c0.9-3.3,3.1-7,4.3-8.5
		c0.3,0.2,0.6,0.4,0.9,0.4c0.7,1.3,2.7,3.8,4.1,5.4c2.4,2.7,5.4,5.2,7.7,5.2c2.6,0,5.5-3.6,5.8-6.3c0.6-0.7,1.2-2.3-0.1-3
		c0-0.3,0-0.6,0-0.6c-0.2-0.1-0.5,0.2-0.6,0.5c-0.1,0-0.2,0-0.2,0c-0.1-0.2-0.3-0.4-0.4-0.5c0-0.3,0.1-0.6,0-0.6
		c-0.1-0.1-0.5,0-0.7,0.4c-0.3,0-0.5,0.1-0.8,0.2l0,0c0-0.2,0-0.4,0-0.6c0-0.2-0.5-0.1-0.8,0.5c-0.6,0.1-1.2,0.7-1.2,1.7
		c-0.9,0.4-1.7,1.5-1.7,2.2c-0.3-0.1-0.6-0.1-0.9,0.1c-2.6-1.4-4.8-3.9-6.3-6.3c0.2-0.2,0.6-0.6,0.9-0.6c0.2,0,0.6-0.1,0.8-0.8
		c0.4,0.3,0.8,0.4,1,0.4c0.4,0,1.7-0.7,2.1-1c0.6-0.4-0.1-4.3-0.9-5.7c0.4-0.4,0.9-0.7,1.3-1c0.4,1.4,0.5,5.2,0.7,5.6
		c0.1,0.3,0.6,0.4,0.8,0.6c0.3,0.6,0.5,0.6,0.7,0c0.3-1.6-0.5-4.8-0.9-6.2c1.5,0.5,3.2,1.1,4.3,0.6c2.1-0.9,2.6-2.9,2.3-3.6
		c0.3-0.2,0.5-0.4,0.6-0.6c0.3-0.4,0.3-1,0.1-1.3c0.1-0.1,0.2-0.2,0.2-0.3s0.1-0.1,0.1-0.2c0.3,0.1,0.7,0,0.7-0.2
		c-0.1,0.1-0.4,0.1-0.6,0c0.1-0.2,0.1-0.4,0.2-0.6C-400.3,274.7-399.9,274.7-399.6,274.8z M-427,293.8c-0.4-0.7-1.4-1.1-2.2-1.1
		c-0.4-0.3-0.6-0.4-0.8-0.5c1.1-0.4,2.7-1.2,3.8-2c0.5,0.2,0.9,0.3,1.3,0.5C-425.6,291.7-426.3,292.7-427,293.8z"/>
</g>
</svg>
