<?xml version="1.0" encoding="utf-8"?>
<!-- Generator: Adobe Illustrator 19.1.0, SVG Export Plug-In . SVG Version: 6.00 Build 0)  -->
<svg version="1.1" id="Layer_1" xmlns="http://www.w3.org/2000/svg" xmlns:xlink="http://www.w3.org/1999/xlink" x="0px" y="0px"
	 viewBox="-452 253 55 55" style="enable-background:new -452 253 55 55;" xml:space="preserve">
<style type="text/css">
	.st0{fill:#3C93AC;}
</style>
<g id="XMLID_1_">
	<g>
		<path class="st0" d="M-398.9,281.5c-1.2,1.8-2.1,3.8-3.6,5.5c-5.6,6.4-13.5,6.9-21.4,6.2c-4.1-0.4-14.1-0.6-17.1,7.6l-3.1-7.2
			c1.3-1.9,2.8-4.5,3.1-6.6c0.3-3.1-1.8-4.1-3.4-3.9c-1.8,0.3-2.4,1.3-3,2.7l-2.7-6.2c2.4-6.6,9.7-8.3,17.1-7.6
			c7.9,0.7,15.8,0.1,21.4-6.2c1.5-1.7,2.5-3.8,3.6-5.5l3.4,8c-1.4,1.6-2.8,3.5-3.3,5.2c-0.7,3,1.2,4.3,2.8,4.3
			c1.9,0,2.7-1.1,3.5-2.5L-398.9,281.5z"/>
	</g>
</g>
</svg>
